<svg xmlns="http://www.w3.org/2000/svg" xmlns:xlink="http://www.w3.org/1999/xlink" width="500" zoomAndPan="magnify" viewBox="0 0 375 374.999991" height="500" preserveAspectRatio="xMidYMid meet" version="1.0"><defs><clipPath id="6492299306"><path d="M 0 51.796875 L 375 51.796875 L 375 323.296875 L 0 323.296875 Z M 0 51.796875 " clip-rule="nonzero"/></clipPath></defs><path fill="#ffde59" d="M 344.613281 125.347656 L 288.300781 76.398438 C 286.675781 74.988281 283.589844 73.835938 281.4375 73.835938 L 93.5625 73.835938 C 91.414062 73.835938 88.324219 74.988281 86.699219 76.398438 L 30.386719 125.347656 C 28.761719 126.761719 28.625 129.210938 30.074219 130.800781 L 184.859375 300.066406 C 186.3125 301.65625 188.6875 301.65625 190.140625 300.066406 L 344.925781 130.800781 C 346.378906 129.210938 346.238281 126.761719 344.613281 125.347656 " fill-opacity="1" fill-rule="nonzero"/><path fill="#5271ff" d="M 155.609375 138.910156 L 202.832031 87.484375 L 155.609375 87.484375 Z M 90.003906 87.484375 C 88.136719 87.484375 85.148438 88.601562 83.734375 89.828125 L 48.8125 120.1875 C 48.414062 120.53125 48.179688 121.003906 48.152344 121.519531 C 48.121094 122.035156 48.300781 122.535156 48.65625 122.917969 L 122.046875 203.179688 L 122.046875 87.484375 Z M 200.976562 135.996094 C 200.046875 136.953125 199.867188 138.847656 200.59375 139.964844 L 246.367188 210.382812 L 326.347656 122.917969 C 326.699219 122.535156 326.878906 122.035156 326.847656 121.519531 C 326.820312 121.003906 326.585938 120.53125 326.1875 120.1875 L 288.566406 87.484375 L 247.855469 87.484375 Z M 186.289062 273.433594 C 186.625 273.796875 187.054688 274 187.5 274 C 187.945312 274 188.375 273.796875 188.710938 273.433594 L 231.582031 226.546875 L 219.8125 226.546875 C 218.1875 226.546875 216.378906 226.027344 214.71875 225.074219 C 213.0625 224.125 211.695312 222.828125 210.875 221.421875 L 176.484375 162.691406 C 176.378906 162.511719 176.089844 162.089844 175.710938 162.089844 C 175.476562 162.089844 175.203125 162.234375 174.941406 162.503906 L 158.066406 179.738281 C 156.78125 181.050781 155.609375 183.917969 155.609375 185.753906 L 155.609375 219.554688 C 155.609375 223.410156 152.472656 226.546875 148.617188 226.546875 L 143.417969 226.546875 Z M 187.5 320.820312 C 185.648438 320.820312 183.921875 320.050781 182.640625 318.648438 L 4.59375 123.945312 C 3.332031 122.5625 2.695312 120.777344 2.800781 118.921875 C 2.910156 117.0625 3.746094 115.359375 5.15625 114.136719 L 69.929688 57.832031 C 72.265625 55.800781 76.355469 54.273438 79.445312 54.273438 L 295.554688 54.273438 C 298.648438 54.273438 302.738281 55.800781 305.070312 57.832031 L 369.84375 114.132812 C 371.253906 115.359375 372.09375 117.058594 372.195312 118.921875 C 372.304688 120.777344 371.667969 122.5625 370.40625 123.945312 L 192.359375 318.648438 C 191.078125 320.050781 189.351562 320.820312 187.5 320.820312 " fill-opacity="1" fill-rule="nonzero"/><g clip-path="url(#6492299306)"><path fill="#100f0d" d="M 149.023438 229.015625 C 154.054688 228.800781 158.082031 224.640625 158.082031 219.554688 L 158.082031 185.753906 C 158.082031 184.5625 158.996094 182.320312 159.832031 181.46875 L 175.339844 165.632812 L 208.742188 222.675781 C 209.777344 224.445312 211.464844 226.0625 213.488281 227.222656 C 215.515625 228.382812 217.761719 229.023438 219.8125 229.023438 L 225.96875 229.023438 L 187.5 271.089844 Z M 50.871094 121.675781 L 85.359375 91.695312 C 85.691406 91.40625 86.472656 90.921875 87.566406 90.511719 C 88.65625 90.101562 89.5625 89.957031 90.003906 89.957031 L 119.574219 89.957031 L 119.574219 196.808594 Z M 158.082031 89.957031 L 197.199219 89.957031 L 158.082031 132.554688 Z M 248.90625 89.957031 L 287.644531 89.957031 L 324.128906 121.675781 L 246.699219 206.351562 L 202.675781 138.625 C 202.574219 138.421875 202.625 137.890625 202.761719 137.707031 Z M 295.554688 51.796875 L 79.445312 51.796875 C 75.769531 51.796875 71.085938 53.546875 68.308594 55.964844 L 3.53125 112.265625 C 2.566406 113.105469 1.796875 114.113281 1.242188 115.257812 C 0.710938 116.367188 0.402344 117.550781 0.332031 118.777344 C 0.261719 120.007812 0.433594 121.21875 0.835938 122.378906 C 1.253906 123.582031 1.902344 124.667969 2.765625 125.613281 L 180.8125 320.316406 C 181.6875 321.273438 182.722656 322.019531 183.886719 322.53125 C 185.03125 323.039062 186.25 323.296875 187.5 323.296875 C 188.75 323.296875 189.96875 323.039062 191.113281 322.53125 C 192.277344 322.019531 193.3125 321.273438 194.1875 320.316406 L 372.234375 125.613281 C 373.09375 124.671875 373.746094 123.582031 374.164062 122.382812 C 374.566406 121.21875 374.738281 120.007812 374.664062 118.777344 C 374.597656 117.550781 374.289062 116.363281 373.757812 115.257812 C 373.203125 114.113281 372.429688 113.105469 371.46875 112.265625 L 306.691406 55.964844 C 303.917969 53.546875 299.234375 51.796875 295.554688 51.796875 Z M 187.5 276.472656 C 188.601562 276.472656 189.699219 276.015625 190.535156 275.105469 L 237.199219 224.074219 L 219.8125 224.074219 C 217.328125 224.074219 214.265625 222.320312 213.011719 220.171875 L 178.621094 161.445312 C 177.914062 160.238281 176.832031 159.613281 175.710938 159.613281 C 174.835938 159.613281 173.9375 159.992188 173.171875 160.773438 L 156.296875 178.003906 C 154.558594 179.78125 153.136719 183.269531 153.136719 185.753906 L 153.136719 219.554688 C 153.136719 222.039062 151.101562 224.074219 148.617188 224.074219 L 137.800781 224.074219 L 184.464844 275.105469 C 185.300781 276.015625 186.398438 276.472656 187.5 276.472656 M 124.519531 209.550781 L 124.519531 86.828125 C 124.519531 86.179688 124.660156 85.566406 124.910156 85.007812 L 90.003906 85.007812 C 87.53125 85.007812 83.980469 86.339844 82.113281 87.960938 L 47.1875 118.320312 C 45.320312 119.941406 45.15625 122.765625 46.828125 124.589844 L 124.519531 209.550781 M 154.386719 143.019531 C 154.890625 143.019531 155.515625 142.667969 156.191406 141.933594 L 207.886719 85.636719 C 208.082031 85.421875 208.304688 85.210938 208.546875 85.007812 L 152.75 85.007812 C 152.996094 85.566406 153.136719 86.179688 153.136719 86.828125 L 153.136719 140.742188 C 153.136719 142.230469 153.628906 143.019531 154.386719 143.019531 M 246.035156 214.410156 L 328.171875 124.589844 C 329.839844 122.765625 329.679688 119.941406 327.8125 118.320312 L 289.492188 85.007812 L 246.734375 85.007812 C 246.605469 85.1875 246.457031 85.371094 246.277344 85.558594 L 199.195312 134.277344 C 197.46875 136.0625 197.164062 139.230469 198.519531 141.3125 L 246.035156 214.410156 M 295.554688 56.746094 C 298.027344 56.746094 301.582031 58.074219 303.449219 59.695312 L 368.21875 116.003906 C 370.089844 117.625 370.25 120.449219 368.582031 122.273438 L 190.535156 316.980469 C 189.699219 317.890625 188.601562 318.347656 187.5 318.347656 C 186.398438 318.347656 185.300781 317.890625 184.464844 316.980469 L 6.417969 122.273438 C 4.75 120.449219 4.910156 117.625 6.777344 116.003906 L 71.550781 59.695312 C 73.421875 58.074219 76.972656 56.746094 79.445312 56.746094 L 295.554688 56.746094 " fill-opacity="1" fill-rule="nonzero"/></g></svg>